<?xml version="1.0" standalone="no"?>
<!DOCTYPE svg PUBLIC "-//W3C//DTD SVG 20010904//EN"
 "http://www.w3.org/TR/2001/REC-SVG-20010904/DTD/svg10.dtd">
<svg version="1.0" xmlns="http://www.w3.org/2000/svg"
 width="384.000000pt" height="384.000000pt" viewBox="0 0 384.000000 384.000000"
 preserveAspectRatio="xMidYMid meet">
<metadata>
Created by potrace 1.14, written by Peter Selinger 2001-2017
</metadata>
<g transform="translate(0.000000,384.000000) scale(0.100000,-0.100000)"
fill="#000000" stroke="none">
<path d="M1820 3823 c-151 -10 -313 -39 -462 -84 -67 -19 -68 -21 -68 -54 0
-18 3 -40 6 -49 5 -14 8 -14 30 1 19 12 27 13 39 3 12 -10 16 -8 24 11 8 21 5
25 -20 33 -46 14 -33 24 16 13 25 -6 41 -13 35 -17 -14 -9 74 -52 93 -44 8 3
18 1 22 -5 9 -16 61 -13 94 4 16 8 31 12 34 9 3 -4 46 17 94 45 49 28 92 51
96 51 4 0 7 -9 7 -20 0 -11 5 -20 10 -20 6 0 10 13 10 28 0 31 -8 28 170 69
l75 17 -65 7 c-67 7 -161 8 -240 2z m-100 -126 c0 -2 -10 -12 -22 -23 l-23
-19 19 23 c18 21 26 27 26 19z m-247 -31 c4 -10 1 -13 -8 -9 -8 3 -12 9 -9 14
7 12 11 11 17 -5z"/>
<path d="M2340 3765 c0 -8 9 -24 20 -35 17 -17 33 -20 113 -19 l92 1 -85 28
c-125 40 -140 43 -140 25z"/>
<path d="M1912 3690 c0 -14 2 -19 5 -12 2 6 2 18 0 25 -3 6 -5 1 -5 -13z"/>
<path d="M1250 3653 c3 -25 10 -48 17 -50 11 -4 10 45 -3 85 -9 31 -19 7 -14
-35z"/>
<path d="M1090 3635 c-51 -25 -90 -48 -88 -51 5 -4 183 42 199 52 9 5 -1 44
-10 44 -4 0 -49 -20 -101 -45z"/>
<path d="M1044 3565 c-145 -41 -233 -82 -257 -122 -4 -7 -14 -13 -20 -13 -7 0
-35 -20 -62 -44 l-50 -44 45 10 c25 6 53 14 62 19 9 5 36 12 59 15 24 4 54 13
68 21 14 7 40 13 57 13 16 0 34 4 40 9 5 4 42 18 82 30 47 14 72 27 72 36 0 8
4 15 10 15 5 0 7 -7 4 -15 -7 -17 11 -21 21 -5 4 7 11 8 18 1 19 -15 57 22 57
57 0 45 -10 62 -34 61 -11 -1 -89 -20 -172 -44z m166 5 c0 -21 -15 -27 -25
-10 -7 12 2 30 16 30 5 0 9 -9 9 -20z"/>
<path d="M1328 3603 c-9 -2 -20 -13 -23 -23 -4 -12 -12 -16 -26 -13 -19 5 -20
2 -14 -33 15 -87 17 -89 64 -40 25 26 34 44 35 72 1 38 -6 45 -36 37z m32 -35
c0 -12 -3 -18 -7 -14 -10 10 -11 46 -1 40 4 -3 8 -15 8 -26z"/>
<path d="M1922 3580 c0 -19 2 -27 5 -17 2 9 2 25 0 35 -3 9 -5 1 -5 -18z"/>
<path d="M2853 3551 c-35 -22 -70 -91 -83 -165 -5 -28 -14 -117 -20 -198 -6
-80 -17 -186 -25 -235 -8 -48 -15 -92 -15 -97 0 -11 -10 -8 -155 48 -65 25
-125 46 -132 46 -7 0 -32 -9 -56 -19 -23 -11 -63 -27 -89 -36 l-47 -17 -78 62
c-43 34 -78 66 -78 71 0 6 43 29 95 52 132 60 130 72 -12 112 -32 8 -58 21
-58 28 0 7 5 55 10 108 9 98 3 150 -19 157 -6 2 -17 -10 -24 -27 -6 -17 -15
-31 -20 -31 -5 0 -7 6 -4 13 9 24 -11 43 -45 42 l-33 0 0 -72 c0 -85 11 -93
57 -40 l29 32 -6 -45 c-3 -24 -11 -50 -16 -56 -6 -7 -9 -26 -7 -41 3 -26 1
-28 -26 -25 l-29 4 6 -70 c9 -91 -4 -105 -55 -59 -54 49 -65 80 -72 202 -8
129 -12 145 -33 145 -9 0 -13 -6 -10 -15 10 -23 -11 -28 -43 -8 -25 15 -36 16
-72 6 -24 -6 -65 -9 -93 -7 -46 3 -47 1 -5 -13 13 -4 12 -7 -4 -18 -10 -8 -15
-18 -11 -24 23 -37 -92 20 -148 74 -42 40 -48 43 -71 32 -15 -7 -24 -18 -21
-25 3 -8 8 -32 11 -55 4 -23 11 -50 15 -59 15 -28 19 -210 6 -240 -13 -30 -22
-35 -32 -17 -4 6 -19 7 -36 4 -33 -7 -41 10 -9 20 25 8 25 28 2 195 -16 108
-20 125 -37 129 -24 4 -37 21 -30 39 2 6 2 12 0 12 -7 0 -519 -150 -530 -155
-5 -3 4 -2 21 1 29 5 32 2 51 -43 12 -26 47 -133 78 -238 48 -159 62 -195 89
-222 37 -37 86 -98 86 -107 0 -15 -27 -3 -59 27 -18 17 -31 25 -28 16 27 -78
30 -100 16 -113 -8 -7 -63 -25 -123 -39 -60 -14 -111 -28 -113 -31 -5 -5 16
-106 22 -106 1 0 51 21 111 46 117 49 144 68 169 120 10 21 23 34 34 34 16 0
22 -15 35 -85 18 -100 35 -135 79 -169 41 -32 143 -79 159 -74 24 8 52 -38 71
-117 11 -44 19 -91 19 -105 -1 -19 9 -31 41 -49 22 -13 70 -45 106 -70 37 -26
84 -58 106 -71 33 -20 37 -21 25 -5 -14 17 -13 18 2 12 9 -3 22 1 29 9 20 24
22 8 2 -22 -16 -26 -17 -27 -1 -21 10 3 20 1 24 -5 4 -7 10 -5 16 6 5 9 13 16
19 16 5 0 3 -11 -6 -24 -14 -22 -12 -56 4 -56 4 0 18 12 30 26 29 34 40 23 12
-12 -20 -25 -20 -28 -5 -45 15 -17 17 -16 45 14 15 18 29 27 29 21 0 -6 -9
-19 -20 -29 -28 -25 -26 -78 2 -105 13 -12 29 -18 38 -14 46 20 56 16 109 -46
30 -34 57 -75 60 -90 6 -26 8 -27 25 -14 19 14 19 14 -3 38 l-23 24 22 7 c13
4 30 0 45 -9 30 -20 59 -80 50 -103 -5 -16 -10 -14 -33 13 -29 34 -52 35 -52
3 0 -15 -4 -17 -24 -9 -19 7 -28 4 -48 -18 -43 -46 -81 -102 -70 -102 6 0 12
6 15 13 4 9 7 9 18 -1 12 -11 11 -15 -4 -26 -16 -12 -11 -24 64 -147 72 -120
121 -213 194 -374 25 -55 41 -125 28 -125 -120 -7 -314 -3 -317 6 -11 30 -288
64 -357 43 -19 -5 -65 -12 -104 -15 -38 -3 -79 -9 -90 -14 -55 -23 -98 -30
-243 -36 -180 -7 -185 -6 -387 92 -136 66 -227 134 -317 238 -148 171 -200
357 -167 592 6 43 18 92 27 109 9 16 17 53 18 81 2 56 23 110 42 107 6 -2 25
23 41 55 50 95 45 93 91 43 43 -47 47 -62 25 -101 -27 -47 -19 -64 65 -140 74
-67 116 -89 168 -90 7 0 -12 30 -42 66 -30 37 -67 92 -83 123 -15 31 -35 62
-43 69 -8 8 -2 6 14 -3 16 -10 89 -79 162 -153 73 -75 136 -134 139 -131 2 3
-4 23 -15 44 -23 45 -25 82 -8 120 15 34 32 27 39 -18 5 -35 48 -87 70 -87 5
0 9 -5 9 -11 0 -14 -62 -1 -72 15 -13 19 -9 -19 5 -53 9 -21 37 -48 83 -78 38
-25 74 -51 79 -57 6 -7 39 -38 74 -70 47 -44 65 -55 72 -45 6 10 11 5 19 -16
11 -28 26 -45 43 -45 4 0 0 11 -9 25 -14 21 -14 25 -2 25 8 0 23 -9 34 -21 15
-17 16 -22 4 -29 -18 -11 -17 -11 50 -45 30 -15 71 -28 90 -28 61 0 133 45
197 125 l58 71 6 91 c4 68 2 96 -8 111 -7 11 -13 27 -13 36 0 21 -148 125
-649 458 l-363 242 -83 -41 c-90 -43 -118 -49 -113 -24 2 9 32 27 72 42 l68
27 -5 70 c-3 39 -10 81 -16 95 -11 23 -11 23 -7 2 6 -29 -13 -39 -105 -52 -41
-6 -123 -19 -184 -30 -60 -10 -126 -21 -146 -25 -29 -4 -36 -9 -32 -23 3 -11
-10 -35 -31 -61 -20 -24 -36 -47 -36 -52 0 -5 -9 -9 -19 -9 -16 0 -21 -14 -34
-87 -26 -146 -29 -173 -21 -173 5 0 91 38 192 86 108 50 190 83 200 79 9 -3
28 -15 41 -26 29 -24 22 -32 -44 -50 -22 -6 -60 -22 -84 -35 -24 -13 -50 -24
-57 -24 -8 0 -66 -21 -130 -47 -92 -38 -118 -53 -126 -73 -15 -38 7 -314 38
-458 103 -496 390 -924 803 -1201 221 -148 478 -252 731 -297 373 -65 706 -27
1080 123 242 97 508 287 686 491 98 112 221 296 284 425 51 104 140 355 140
394 0 22 -34 45 -160 110 -30 15 -57 31 -60 35 -3 4 -57 34 -120 67 -63 32
-135 70 -160 83 -25 12 -48 27 -52 33 -17 24 -19 -13 -6 -130 8 -69 12 -128
10 -130 -3 -2 -18 7 -35 21 -24 20 -32 22 -39 12 -6 -9 -7 -6 -3 8 4 17 -9 30
-81 78 -57 38 -91 55 -102 51 -15 -6 -15 -8 2 -18 94 -59 161 -141 173 -211 5
-33 2 -41 -33 -78 -21 -22 -57 -51 -78 -65 -22 -14 -96 -75 -166 -137 -224
-196 -250 -217 -250 -204 -1 20 -40 -31 -40 -52 0 -9 -10 -25 -22 -36 -20 -18
-21 -18 -15 -1 4 10 10 37 13 59 7 39 6 40 -17 33 -40 -12 -44 -11 -43 15 1
16 -7 32 -23 44 -21 15 -29 16 -48 6 -12 -7 -29 -23 -36 -36 -13 -25 -29 -32
-29 -12 0 6 -8 4 -20 -7 -17 -15 -21 -16 -34 -2 -14 13 -14 16 1 29 15 11 16
11 10 -4 -3 -10 -3 -18 1 -18 12 0 42 39 42 55 0 8 11 17 25 21 14 4 25 10 23
14 -2 5 -52 52 -113 105 -113 100 -138 131 -133 167 4 27 28 36 28 11 0 -21
133 -143 155 -143 8 0 17 5 20 10 4 6 21 16 38 24 39 16 267 202 268 219 1 7
1 15 0 19 -2 14 71 68 93 68 15 0 31 12 47 37 13 20 46 48 72 62 76 41 77 54
13 97 -57 37 -84 82 -67 111 6 12 10 9 19 -15 6 -18 24 -37 41 -46 16 -9 60
-37 96 -62 36 -26 68 -44 71 -42 8 9 6 92 -3 145 -11 57 -36 103 -58 103 -7 0
-17 9 -20 21 -9 26 -62 59 -98 59 -22 0 -26 -3 -19 -16 4 -8 6 -29 4 -46 l-5
-31 -13 32 c-7 17 -27 39 -44 49 -21 11 -29 23 -26 35 3 14 -3 17 -32 18 -75
1 -79 18 -5 18 84 1 103 17 99 82 -3 40 10 54 35 38 25 -16 61 -10 66 10 7 29
37 15 102 -48 52 -51 82 -97 110 -172 6 -18 31 -36 85 -62 42 -20 82 -41 89
-47 7 -6 55 -32 107 -59 201 -102 315 -164 339 -182 24 -19 51 -25 51 -11 0 4
5 61 10 127 7 81 7 165 0 256 -10 131 -41 317 -63 369 -5 14 -11 33 -12 42 -3
28 -11 31 -47 18 -29 -10 -41 -8 -98 15 -110 46 -163 66 -227 88 -35 12 -63
25 -63 29 0 4 39 19 88 34 48 15 92 30 97 35 6 4 40 19 78 34 37 15 67 29 67
32 0 3 -14 32 -32 65 -31 59 -32 60 -67 52 -55 -11 -70 -8 -150 33 -92 46
-106 66 -71 94 l25 20 -27 -7 c-24 -5 -29 -2 -38 21 -6 15 -9 30 -6 32 6 7 86
-36 86 -46 0 -8 99 -53 149 -67 27 -7 29 -11 -40 91 -63 95 -128 166 -129 141
0 -15 -5 -17 -27 -11 -40 10 -53 24 -53 55 0 51 -20 86 -81 139 -33 29 -63 51
-66 48 -6 -7 14 -95 26 -115 6 -9 15 -10 40 -1 40 14 48 6 53 -49 l3 -44 -74
-23 c-40 -13 -79 -29 -84 -34 -6 -6 -22 -11 -34 -11 -13 0 -80 -18 -149 -41
-69 -22 -127 -39 -129 -37 -2 2 0 75 5 162 13 221 40 300 113 331 29 12 29 13
10 23 -15 8 -26 7 -50 -7z m-1057 -211 l-5 -35 19 25 19 25 -1 -72 c0 -40 -3
-73 -5 -73 -3 0 -32 17 -65 37 -62 38 -77 36 -78 -11 0 -16 6 -18 40 -13 43 6
60 -9 60 -52 0 -20 -6 -21 -77 -20 -43 0 -98 4 -123 8 -41 6 -43 8 -24 18 19
11 21 19 16 81 -5 77 -3 80 70 89 30 4 37 1 43 -16 6 -20 35 -30 35 -12 0 5 9
11 20 14 31 8 24 27 -11 27 -39 0 -34 23 7 30 46 9 66 -8 60 -50z m-916 -89
c0 -5 8 -11 18 -14 12 -3 10 -6 -11 -12 -30 -8 -54 5 -43 24 9 13 36 15 36 2z
m369 -138 c1 -13 -3 -23 -8 -23 -12 0 -21 37 -20 80 l1 35 13 -35 c7 -19 14
-45 14 -57z m1970 -38 c15 -7 25 -23 28 -41 2 -16 4 -38 6 -48 2 -17 -14 -25
-96 -52 -81 -27 -103 -31 -123 -22 -17 8 -24 19 -24 39 0 16 -7 29 -17 33 -14
6 -11 11 18 28 19 12 40 21 47 19 8 -1 12 5 10 15 -4 22 20 31 28 10 5 -14 9
-14 37 0 30 16 30 17 11 31 -18 14 -16 14 16 8 19 -4 46 -13 59 -20z m-1593
-61 c-5 -12 -1 -14 16 -9 21 7 128 -23 128 -36 0 -7 -123 -59 -141 -59 -19 0
-109 42 -105 49 3 4 -5 7 -17 6 -41 0 -23 20 38 42 74 26 89 28 81 7z m1677
-109 c15 -19 51 -47 79 -61 l51 -26 -43 -24 c-26 -15 -51 -22 -64 -19 -40 12
-226 98 -226 106 0 10 120 57 150 58 17 1 34 -10 53 -34z m-208 -203 c-5 -5
-68 15 -120 38 -22 10 -62 25 -90 35 -54 19 -145 63 -145 69 0 33 20 27 184
-54 96 -47 173 -86 171 -88z m353 74 c-11 -8 -15 -20 -11 -35 6 -22 9 -22 63
-3 8 3 13 3 10 0 -9 -11 -179 -76 -183 -71 -3 2 6 27 20 54 20 37 31 49 49 49
12 0 26 5 29 10 3 6 14 10 23 10 16 -1 16 -1 0 -14z m-1062 -242 c92 -41 202
-112 210 -134 3 -8 30 -34 60 -58 65 -52 71 -78 17 -84 -33 -4 -43 0 -79 32
-23 21 -51 43 -63 49 -11 7 -21 18 -21 26 0 14 -188 145 -208 145 -6 0 -14 5
-17 10 -8 12 3 50 14 50 5 0 44 -16 87 -36z m-1181 16 c-3 -5 -10 -10 -16 -10
-5 0 -9 5 -9 10 0 6 7 10 16 10 8 0 12 -4 9 -10z m2195 0 c0 -5 -4 -10 -10
-10 -5 0 -10 5 -10 10 0 6 5 10 10 10 6 0 10 -4 10 -10z m-1012 -295 c26 -14
61 -37 77 -50 36 -29 30 -37 -60 -85 -68 -36 -197 -123 -235 -158 -28 -25 -63
-37 -82 -28 -7 3 -33 22 -58 41 -25 19 -56 41 -70 47 -14 7 -29 18 -33 25 -4
7 -13 13 -19 13 -13 0 -68 49 -68 61 0 3 20 7 45 7 50 1 140 23 224 54 68 26
171 89 171 105 0 16 45 2 108 -32z m184 -220 c54 -36 97 -69 94 -74 -7 -11
-47 -2 -61 14 -5 6 -40 35 -77 65 -38 29 -68 55 -68 57 0 9 21 -3 112 -62z
m-958 -20 c-14 -22 -34 -34 -34 -20 0 5 42 45 47 45 2 0 -4 -11 -13 -25z
m-1053 -2 c13 -16 12 -17 -3 -4 -10 7 -18 15 -18 17 0 8 8 3 21 -13z m1072
-19 c-9 -15 -19 -22 -21 -16 -2 6 3 18 10 26 22 25 30 18 11 -10z m1159 -16
c-16 -16 -37 4 -28 28 6 16 8 16 23 1 13 -13 15 -19 5 -29z m-2027 0 c42 -32
55 -48 37 -48 -15 0 -92 59 -92 70 0 16 8 12 55 -22z m935 9 c0 -2 -9 -14 -20
-27 -20 -23 -21 -23 -38 -6 -16 18 -16 18 5 13 13 -3 27 1 34 9 11 13 19 18
19 11z m-861 -131 c18 -13 28 -26 24 -29 -14 -9 -73 24 -73 39 0 20 12 17 49
-10z m1702 -57 c45 -46 65 -80 37 -63 -7 4 -8 3 -4 -5 4 -6 12 -9 17 -6 11 7
29 -37 29 -71 0 -16 -8 -27 -22 -33 -13 -5 -36 -23 -52 -40 -17 -17 -35 -31
-41 -31 -7 0 -20 -9 -29 -19 -10 -11 -32 -25 -49 -32 -18 -7 -46 -28 -63 -46
-17 -18 -35 -33 -40 -33 -5 0 -22 -12 -38 -28 l-30 -27 -22 20 -22 19 34 24
c19 12 34 27 34 32 0 6 9 10 20 10 11 0 20 6 20 14 0 8 5 18 12 22 7 4 8 3 4
-4 -4 -7 -3 -12 2 -12 5 0 12 9 15 21 4 16 10 19 29 14 22 -7 22 -6 4 7 -18
14 -18 15 3 30 15 10 19 18 11 23 -6 4 -17 2 -25 -5 -7 -6 -19 -10 -27 -9 -7
1 -22 1 -33 0 -16 -1 -17 -3 -6 -10 11 -7 7 -13 -20 -24 -39 -17 -56 -8 -38
20 16 26 5 60 -15 44 -22 -18 -40 10 -22 35 11 15 12 22 3 33 -9 12 -9 13 1 7
16 -10 74 13 66 25 -3 5 -13 5 -24 -1 -33 -18 -34 -11 -2 20 17 16 52 40 79
54 26 13 64 36 83 50 19 14 43 25 53 26 10 0 41 -23 68 -51z m-501 17 c0 -3
-4 -8 -10 -11 -5 -3 -10 -1 -10 4 0 6 5 11 10 11 6 0 10 -2 10 -4z m-111 -32
c-11 -14 -9 -19 11 -35 19 -14 21 -19 9 -19 -9 0 -22 7 -29 15 -7 8 -16 13
-20 10 -4 -3 -10 5 -13 16 -4 15 -2 19 8 15 8 -3 17 -1 20 4 4 6 11 10 17 10
6 0 5 -6 -3 -16z m-839 -84 c0 -5 -4 -10 -10 -10 -5 0 -10 5 -10 10 0 6 5 10
10 10 6 0 10 -4 10 -10z m-112 -25 c-3 -3 -9 2 -12 12 -6 14 -5 15 5 6 7 -7
10 -15 7 -18z m188 -92 c18 -11 17 -12 -8 -12 -15 -1 -33 6 -42 14 -8 8 -19
15 -25 15 -6 0 -8 7 -5 15 4 8 1 15 -6 15 -6 0 -8 5 -5 10 4 7 20 0 39 -17 18
-15 41 -33 52 -40z m84 -13 c0 -5 -4 -10 -10 -10 -5 0 -10 5 -10 10 0 6 5 10
10 10 6 0 10 -4 10 -10z m59 -106 c31 -30 33 -34 15 -34 -27 0 -77 49 -69 68
3 7 6 19 6 25 1 7 4 3 6 -7 3 -10 21 -34 42 -52z m736 -54 c-10 -11 -22 -17
-28 -13 -6 4 -3 12 8 20 28 20 41 16 20 -7z m149 -215 c7 -18 -3 -45 -16 -45
-6 0 -8 7 -5 15 4 8 2 17 -4 20 -10 7 -3 25 11 25 4 0 10 -7 14 -15z m151 -72
c5 -21 1 -31 -17 -45 -27 -21 -47 -20 -62 5 -9 15 -6 22 19 43 39 31 51 30 60
-3z m-100 -53 c-3 -5 -11 -10 -16 -10 -6 0 -7 5 -4 10 3 6 11 10 16 10 6 0 7
-4 4 -10z m-1635 -450 c0 -2 -4 0 -9 5 -13 13 -71 197 -70 221 1 15 78 -207
79 -226z m1323 -60 c3 -13 0 -20 -9 -20 -8 0 -14 9 -14 20 0 11 4 20 9 20 5 0
11 -9 14 -20z m-546 -76 c-3 -3 -12 -4 -19 -1 -8 3 -5 6 6 6 11 1 17 -2 13 -5z
m200 0 c-3 -3 -12 -4 -19 -1 -8 3 -5 6 6 6 11 1 17 -2 13 -5z m19 -81 c-10
-10 -19 5 -10 18 6 11 8 11 12 0 2 -7 1 -15 -2 -18z m397 -55 c-9 -17 -19 -6
-17 20 2 38 5 41 13 12 5 -14 6 -28 4 -32z m-393 18 c0 -3 -4 -8 -10 -11 -5
-3 -10 -1 -10 4 0 6 5 11 10 11 6 0 10 -2 10 -4z m-149 -79 c-8 -8 -11 -7 -11
4 0 20 13 34 18 19 3 -7 -1 -17 -7 -23z m279 -37 c0 -5 -5 -10 -11 -10 -5 0
-7 5 -4 10 3 6 8 10 11 10 2 0 4 -4 4 -10z m466 -18 c-18 -16 -18 -16 -6 6 6
13 14 21 18 18 3 -4 -2 -14 -12 -24z m-81 -62 c-3 -5 -11 -10 -16 -10 -6 0 -7
5 -4 10 3 6 11 10 16 10 6 0 7 -4 4 -10z"/>
<path d="M1555 2989 c-11 -16 -2 -17 30 -3 l30 13 -27 1 c-15 0 -30 -5 -33
-11z"/>
<path d="M1642 2971 c-13 -3 -24 -10 -25 -16 -3 -14 48 -19 69 -7 16 9 16 10
-2 19 -10 6 -29 7 -42 4z"/>
<path d="M3377 2730 c-3 -11 -3 -20 -1 -20 2 0 13 9 24 20 19 19 19 20 1 20
-10 0 -21 -9 -24 -20z"/>
<path d="M2494 1715 c-25 -25 -30 -35 -18 -35 11 0 15 -6 11 -20 -3 -11 -1
-20 4 -20 9 0 13 14 10 38 -1 7 5 15 14 18 8 3 15 13 15 22 0 13 3 12 21 -4
21 -19 21 -19 8 9 -7 15 -16 27 -21 27 -5 0 -24 -16 -44 -35z"/>
<path d="M2533 1693 c-15 -5 -17 -23 -4 -23 5 0 11 7 15 15 3 8 4 15 3 14 -1
0 -8 -3 -14 -6z"/>
<path d="M2450 1659 c0 -5 5 -7 10 -4 6 3 10 8 10 11 0 2 -4 4 -10 4 -5 0 -10
-5 -10 -11z"/>
<path d="M2415 1650 c-3 -5 -1 -10 4 -10 6 0 11 5 11 10 0 6 -2 10 -4 10 -3 0
-8 -4 -11 -10z"/>
<path d="M2439 1621 l-24 -20 28 3 c27 3 51 16 28 16 -7 0 -9 5 -6 10 10 15 0
12 -26 -9z"/>
<path d="M2458 1577 c-21 -12 -38 -25 -38 -29 0 -9 68 30 76 43 7 12 4 11 -38
-14z"/>
<path d="M1932 3520 c0 -14 2 -19 5 -12 2 6 2 18 0 25 -3 6 -5 1 -5 -13z"/>
<path d="M1587 3473 c-14 -13 -6 -19 28 -20 24 -1 35 3 35 13 0 14 -50 20 -63
7z"/>
<path d="M513 3204 c-19 -26 -20 -28 -1 -108 55 -244 111 -466 115 -462 7 7
-15 166 -37 273 -11 51 -20 107 -19 125 l1 33 13 -35 c20 -52 17 -17 -8 94
-12 55 -27 101 -33 103 -7 2 -20 -8 -31 -23z"/>
<path d="M1941 3104 c0 -11 3 -14 6 -6 3 7 2 16 -1 19 -3 4 -6 -2 -5 -13z"/>
<path d="M2805 2080 c3 -5 11 -10 16 -10 6 0 7 5 4 10 -3 6 -11 10 -16 10 -6
0 -7 -4 -4 -10z"/>
<path d="M654 1654 c-4 -14 -4 -40 -1 -58 5 -32 3 -34 -79 -82 -46 -27 -84
-53 -84 -59 0 -12 372 -385 385 -385 6 0 54 29 107 65 54 36 104 65 112 65 7
0 24 9 37 20 l24 20 -47 43 c-200 181 -199 180 -182 197 14 14 18 12 43 -15
15 -16 52 -50 82 -75 30 -24 129 -111 221 -192 91 -81 171 -148 176 -148 5 0
15 13 22 29 6 16 33 64 60 107 27 43 47 80 46 81 -2 2 -20 -4 -41 -13 -25 -10
-50 -13 -73 -9 -33 6 -34 5 -28 -20 6 -25 6 -25 -17 -10 -13 8 -30 27 -38 41
-7 14 -32 39 -56 55 -23 16 -79 67 -125 113 -76 77 -189 170 -238 196 -16 9
-22 7 -27 -6 -5 -14 -16 -15 -67 -10 l-61 6 54 -48 c48 -43 51 -49 37 -61 -18
-15 -23 -12 -103 63 -23 22 -52 40 -65 41 -19 2 -22 7 -20 29 4 40 -16 23 -24
-19 -9 -50 -27 -31 -21 21 5 49 1 58 -9 18z m10 -213 c10 -10 14 -21 9 -24 -4
-3 -25 -14 -45 -26 l-37 -20 -15 21 c-16 22 -12 30 29 55 28 17 40 16 59 -6z
m68 -75 c17 -12 17 -14 0 -28 -44 -37 -67 -46 -80 -31 -19 19 -11 45 18 60 31
16 41 16 62 -1z m87 -85 c11 -20 1 -32 -48 -60 -22 -12 -26 -11 -38 5 -19 26
-17 32 20 54 40 25 54 25 66 1z m86 -81 c15 -16 15 -21 3 -33 -29 -30 -56 -38
-78 -25 -29 18 -25 35 13 58 39 24 40 24 62 0z"/>
</g>
</svg>
